<svg xmlns="http://www.w3.org/2000/svg" width="242.191" height="183.767" viewBox="0 0 242.191 183.767">
  <g id="adventurous" transform="translate(-238.651 -272.808)">
    <path id="Path_6919" data-name="Path 6919" d="M378.367,294.385s-5.378,5.923-22.661,5.923-19.6-5.19-19.6-5.19-4.611-2.5-7.68,1.728,1.146,12.68,13.439,14.6,30.35,0,30.35,0-11.9,17.671-14.593,19.6-8.455,1.538-12.682,0-14.6-10.375-14.6-10.375-6.92-6.144-14.6,0-22.666,23.046-22.666,23.046h19.59l6.535-7.291s3.451-5.38,8.449-1.927a87.285,87.285,0,0,1,10.565,9.217h47.828s25.506-24.663,14.95-49.325" transform="translate(66.555 25.066)" fill="none" stroke="#3f585c" stroke-linecap="round" stroke-linejoin="round" stroke-width="3.34"/>
    <rect id="Rectangle_2656" data-name="Rectangle 2656" width="15.936" height="20.738" transform="matrix(0.857, -0.516, 0.516, 0.857, 424.619, 388.916)" stroke-width="3.34" stroke="#3f585c" stroke-linecap="round" stroke-linejoin="round" fill="none"/>
    <path id="Path_6920" data-name="Path 6920" d="M251.645,336.118s-8.084-4.765-11.325-19.921H478.9s2.58,10.7-9.706,19.921" transform="translate(0 52.58)" fill="none" stroke="#3f585c" stroke-linecap="round" stroke-linejoin="round" stroke-width="3.34"/>
    <g id="Group_1956" data-name="Group 1956" transform="translate(431.92 274.513)">
      <path id="Path_6921" data-name="Path 6921" d="M358.426,319.327a23.487,23.487,0,1,0-15.438,1.515" transform="translate(-325.047 -274.513)" fill="none" stroke="#3f585c" stroke-linecap="round" stroke-miterlimit="10" stroke-width="3.34"/>
      <g id="Group_1955" data-name="Group 1955" transform="translate(1.448 19.494)">
        <path id="Path_6922" data-name="Path 6922" d="M337.7,289.18a10.241,10.241,0,0,1-12.015-1.373" transform="translate(-325.687 -277.239)" fill="none" stroke="#3f585c" stroke-linecap="round" stroke-miterlimit="10" stroke-width="3.34"/>
        <path id="Path_6923" data-name="Path 6923" d="M331.514,284.15a.412.412,0,1,0,.457-.366A.423.423,0,0,0,331.514,284.15Z" transform="translate(-318.341 -282.316)" fill="none" stroke="#3f585c" stroke-linecap="round" stroke-miterlimit="10" stroke-width="3.34"/>
        <path id="Path_6924" data-name="Path 6924" d="M325.839,283.5a.4.4,0,0,0,.357.45.411.411,0,0,0,.464-.357.423.423,0,0,0-.371-.455A.405.405,0,0,0,325.839,283.5Z" transform="translate(-325.5 -283.134)" fill="none" stroke="#3f585c" stroke-linecap="round" stroke-miterlimit="10" stroke-width="3.34"/>
      </g>
    </g>
    <path id="Path_6925" data-name="Path 6925" d="M332.114,295.194s-5.378,5.923-22.661,5.923-19.6-5.19-19.6-5.19-4.609-2.5-7.682,1.728,1.151,12.68,13.446,14.6,30.348,0,30.348,0-11.9,17.671-14.6,19.6-8.453,1.538-12.677,0-14.6-10.375-14.6-10.375-6.92-6.144-14.6,0-22.664,23.046-22.664,23.046h19.593l6.526-7.291s3.46-5.38,8.455-1.927a87.372,87.372,0,0,1,10.563,9.217H339.8s27.261-25.386,16.585-50.775" transform="translate(8.209 24.258)" fill="none" stroke="#3f585c" stroke-linecap="round" stroke-linejoin="round" stroke-width="3.34"/>
    <line id="Line_345" data-name="Line 345" x2="30.049" y2="49.676" transform="translate(296.596 334.256)" fill="none" stroke="#e31b23" stroke-linecap="round" stroke-linejoin="round" stroke-width="3.34"/>
    <rect id="Rectangle_2657" data-name="Rectangle 2657" width="15.936" height="20.738" transform="matrix(0.863, -0.506, 0.506, 0.863, 320.074, 388.775)" stroke-width="3.34" stroke="#3f585c" stroke-linecap="round" stroke-linejoin="round" fill="none"/>
    <g id="Group_1958" data-name="Group 1958" transform="translate(327.317 274.513)">
      <path id="Path_6926" data-name="Path 6926" d="M312.177,319.327a23.5,23.5,0,1,0-15.441,1.515" transform="translate(-278.79 -274.513)" fill="none" stroke="#3f585c" stroke-linecap="round" stroke-miterlimit="10" stroke-width="3.34"/>
      <g id="Group_1957" data-name="Group 1957" transform="translate(1.449 19.494)">
        <path id="Path_6927" data-name="Path 6927" d="M291.448,289.18a10.244,10.244,0,0,1-12.017-1.373" transform="translate(-279.431 -277.239)" fill="none" stroke="#3f585c" stroke-linecap="round" stroke-miterlimit="10" stroke-width="3.34"/>
        <path id="Path_6928" data-name="Path 6928" d="M285.26,284.15a.414.414,0,0,0,.362.461.417.417,0,1,0-.362-.461Z" transform="translate(-272.083 -282.316)" fill="none" stroke="#3f585c" stroke-linecap="round" stroke-miterlimit="10" stroke-width="3.34"/>
        <path id="Path_6929" data-name="Path 6929" d="M279.584,283.5a.411.411,0,0,0,.816.093.417.417,0,0,0-.364-.455A.4.4,0,0,0,279.584,283.5Z" transform="translate(-279.242 -283.134)" fill="none" stroke="#3f585c" stroke-linecap="round" stroke-miterlimit="10" stroke-width="3.34"/>
      </g>
    </g>
    <g id="Group_1964" data-name="Group 1964" transform="translate(263.027 417.998)">
      <g id="Group_1959" data-name="Group 1959">
        <path id="Path_6930" data-name="Path 6930" d="M293.416,337.963c-11.825,12.1-31.234,12.6-43.055.513" transform="translate(-250.361 -337.963)" fill="none" stroke="#6fccdd" stroke-linecap="round" stroke-linejoin="round" stroke-width="3.34"/>
      </g>
      <g id="Group_1960" data-name="Group 1960" transform="translate(43.055)">
        <path id="Path_6931" data-name="Path 6931" d="M312.452,337.963c-11.825,12.1-31.239,12.6-43.052.513" transform="translate(-269.4 -337.963)" fill="none" stroke="#6fccdd" stroke-linecap="round" stroke-linejoin="round" stroke-width="3.34"/>
      </g>
      <g id="Group_1961" data-name="Group 1961" transform="translate(86.107)">
        <path id="Path_6932" data-name="Path 6932" d="M331.488,337.963c-11.82,12.1-31.234,12.6-43.05.513" transform="translate(-288.438 -337.963)" fill="none" stroke="#6fccdd" stroke-linecap="round" stroke-linejoin="round" stroke-width="3.34"/>
      </g>
      <g id="Group_1962" data-name="Group 1962" transform="translate(129.157)">
        <path id="Path_6933" data-name="Path 6933" d="M350.525,337.963c-11.82,12.1-31.23,12.6-43.05.513" transform="translate(-307.475 -337.963)" fill="none" stroke="#6fccdd" stroke-linecap="round" stroke-linejoin="round" stroke-width="3.34"/>
      </g>
      <g id="Group_1963" data-name="Group 1963" transform="translate(172.207)">
        <path id="Path_6934" data-name="Path 6934" d="M369.567,337.963c-11.82,12.1-31.232,12.6-43.055.513" transform="translate(-326.512 -337.963)" fill="none" stroke="#6fccdd" stroke-linecap="round" stroke-linejoin="round" stroke-width="3.34"/>
      </g>
    </g>
    <g id="Group_1970" data-name="Group 1970" transform="translate(241.503 445.571)">
      <g id="Group_1965" data-name="Group 1965">
        <path id="Path_6935" data-name="Path 6935" d="M283.9,350.156c-11.823,12.1-31.237,12.607-43.055.509" transform="translate(-240.843 -350.156)" fill="none" stroke="#6fccdd" stroke-linecap="round" stroke-linejoin="round" stroke-width="3.34"/>
      </g>
      <g id="Group_1966" data-name="Group 1966" transform="translate(43.055)">
        <path id="Path_6936" data-name="Path 6936" d="M302.928,350.156c-11.816,12.1-31.23,12.607-43.046.509" transform="translate(-259.882 -350.156)" fill="none" stroke="#6fccdd" stroke-linecap="round" stroke-linejoin="round" stroke-width="3.34"/>
      </g>
      <g id="Group_1967" data-name="Group 1967" transform="translate(86.1)">
        <path id="Path_6937" data-name="Path 6937" d="M321.969,350.156c-11.823,12.1-31.232,12.607-43.052.509" transform="translate(-278.917 -350.156)" fill="none" stroke="#6fccdd" stroke-linecap="round" stroke-linejoin="round" stroke-width="3.34"/>
      </g>
      <g id="Group_1968" data-name="Group 1968" transform="translate(129.153)">
        <path id="Path_6938" data-name="Path 6938" d="M341.01,350.156c-11.823,12.1-31.232,12.607-43.055.509" transform="translate(-297.955 -350.156)" fill="none" stroke="#6fccdd" stroke-linecap="round" stroke-linejoin="round" stroke-width="3.34"/>
      </g>
      <g id="Group_1969" data-name="Group 1969" transform="translate(172.207)">
        <path id="Path_6939" data-name="Path 6939" d="M360.049,350.156c-11.823,12.1-31.237,12.607-43.055.509" transform="translate(-316.994 -350.156)" fill="none" stroke="#6fccdd" stroke-linecap="round" stroke-linejoin="round" stroke-width="3.34"/>
      </g>
    </g>
    <line id="Line_346" data-name="Line 346" x2="30.05" y2="49.676" transform="translate(401.198 334.256)" fill="none" stroke="#e31b23" stroke-linecap="round" stroke-linejoin="round" stroke-width="3.34"/>
  </g>
</svg>
