<svg xmlns="http://www.w3.org/2000/svg" width="207.871" height="161.34" viewBox="0 0 207.871 161.34">
  <g id="family" transform="translate(-74.167 -413.222)">
    <g id="Group_1943" data-name="Group 1943" transform="translate(75.84 472.83)">
      <path id="Path_6884" data-name="Path 6884" d="M89.045,464.8a23.049,23.049,0,0,0-10.121,10.212c-2.4,4.821-5.975,27.35.971,27.229,1.918-.028,2.371-1.278,3.23-2.743,1.362-2.344,2.373-13.247,4.1-15.4" transform="translate(-75.84 -428.076)" fill="none" stroke="#616161" stroke-linecap="round" stroke-miterlimit="10" stroke-width="3.34"/>
      <g id="Group_1942" data-name="Group 1942" transform="translate(4.544)">
        <g id="Group_1939" data-name="Group 1939" transform="translate(7.355 52.121)">
          <path id="Path_6885" data-name="Path 6885" d="M94.387,492.052v21.095a6.144,6.144,0,0,1-6.14,6.14h0a6.141,6.141,0,0,1-6.134-6.14V474.674" transform="translate(-82.114 -471.345)" fill="none" stroke="#616161" stroke-linecap="round" stroke-linejoin="round" stroke-width="3.34"/>
          <path id="Path_6886" data-name="Path 6886" d="M100.845,472.919v41.8a6.134,6.134,0,0,1-6.136,6.14h0a6.143,6.143,0,0,1-6.136-6.14" transform="translate(-76.322 -472.919)" fill="none" stroke="#616161" stroke-linecap="round" stroke-miterlimit="10" stroke-width="3.34"/>
        </g>
        <g id="Group_1941" data-name="Group 1941">
          <path id="Path_6887" data-name="Path 6887" d="M92.873,483.955a19.566,19.566,0,1,1,12.886-1.049" transform="translate(-78.236 -445.439)" fill="none" stroke="#616161" stroke-linecap="round" stroke-miterlimit="10" stroke-width="3.34"/>
          <path id="Path_6888" data-name="Path 6888" d="M115.131,469.8c-5.688,9.813-20.088,5.912-20.088,5.912" transform="translate(-63.165 -423.593)" fill="none" stroke="#616161" stroke-linecap="round" stroke-miterlimit="10" stroke-width="3.34"/>
          <path id="Path_6889" data-name="Path 6889" d="M92.747,465.193c9.831,3.685,15.864,2.9,17.73.933" transform="translate(-65.224 -427.726)" fill="none" stroke="#616161" stroke-linecap="round" stroke-miterlimit="10" stroke-width="3.34"/>
          <g id="Group_1940" data-name="Group 1940" transform="translate(13.844 14.99)">
            <path id="Path_6890" data-name="Path 6890" d="M85.9,457.991a8.515,8.515,0,0,0,10.081,0" transform="translate(-85.21 -449.173)" fill="none" stroke="#616161" stroke-linecap="round" stroke-miterlimit="10" stroke-width="3.34"/>
            <path id="Path_6891" data-name="Path 6891" d="M86.224,453.687a.344.344,0,1,1-.351-.345A.347.347,0,0,1,86.224,453.687Z" transform="translate(-85.535 -453.342)" fill="none" stroke="#616161" stroke-linecap="round" stroke-miterlimit="10" stroke-width="3.34"/>
            <path id="Path_6892" data-name="Path 6892" d="M91.9,453.687a.342.342,0,0,1-.341.341.343.343,0,1,1,.341-.341Z" transform="translate(-80.444 -453.342)" fill="none" stroke="#616161" stroke-linecap="round" stroke-miterlimit="10" stroke-width="3.34"/>
          </g>
        </g>
      </g>
    </g>
    <g id="Group_1947" data-name="Group 1947" transform="translate(126.285 414.892)">
      <g id="Group_1946" data-name="Group 1946">
        <path id="Path_6893" data-name="Path 6893" d="M118.029,465.978l6.979-22.036h0l6.523,22.036-6.759,6.611Z" transform="translate(-88.455 -388.844)" fill="#6fccdd" stroke="#6fccdd" stroke-linecap="round" stroke-linejoin="round" stroke-width="3.34"/>
        <g id="Group_1945" data-name="Group 1945">
          <g id="Group_1944" data-name="Group 1944" transform="translate(28.954 19.257)">
            <path id="Path_6894" data-name="Path 6894" d="M118.169,431.019a10.941,10.941,0,0,0,12.949,0" transform="translate(-117.283 -419.688)" fill="none" stroke="#616161" stroke-linecap="round" stroke-miterlimit="10" stroke-width="3.34"/>
            <path id="Path_6895" data-name="Path 6895" d="M118.588,425.489a.443.443,0,1,1-.448-.444A.444.444,0,0,1,118.588,425.489Z" transform="translate(-117.702 -425.045)" fill="none" stroke="#616161" stroke-linecap="round" stroke-miterlimit="10" stroke-width="3.34"/>
            <path id="Path_6896" data-name="Path 6896" d="M125.874,425.489a.439.439,0,1,1-.442-.444A.439.439,0,0,1,125.874,425.489Z" transform="translate(-111.162 -425.045)" fill="none" stroke="#616161" stroke-linecap="round" stroke-miterlimit="10" stroke-width="3.34"/>
          </g>
          <path id="Path_6897" data-name="Path 6897" d="M127.124,464.367a25.143,25.143,0,1,1,16.549-1.354" transform="translate(-97.153 -414.892)" fill="none" stroke="#616161" stroke-linecap="round" stroke-miterlimit="10" stroke-width="3.34"/>
          <path id="Path_6898" data-name="Path 6898" d="M129.061,481.844v49.5a7.874,7.874,0,0,1-7.879,7.875h0a7.872,7.872,0,0,1-7.871-7.875v-78.9" transform="translate(-92.685 -381.22)" fill="none" stroke="#616161" stroke-linecap="round" stroke-linejoin="round" stroke-width="3.34"/>
          <path id="Path_6899" data-name="Path 6899" d="M121.6,531a7.878,7.878,0,0,0,7.881,7.875h0A7.869,7.869,0,0,0,137.366,531V452.828" transform="translate(-85.249 -380.875)" fill="none" stroke="#616161" stroke-linecap="round" stroke-miterlimit="10" stroke-width="3.34"/>
          <path id="Path_6900" data-name="Path 6900" d="M124.743,439.762a29.507,29.507,0,0,0-13.006,13.121c-3.088,6.193-14.961,44.011-6.037,43.855,2.456-.049,3.289-.385,4.385-2.276,1.753-3,10.1-27.149,12.311-29.918" transform="translate(-102.436 -392.591)" fill="none" stroke="#616161" stroke-linecap="round" stroke-miterlimit="10" stroke-width="3.34"/>
          <path id="Path_6901" data-name="Path 6901" d="M128.982,439.762a29.589,29.589,0,0,1,13,13.121c3.076,6.193,11.166,45.982,2.246,45.824-2.462-.046-3.05-1.646-4.146-3.53-1.754-3-6.551-27.864-8.759-30.633" transform="translate(-78.633 -392.591)" fill="none" stroke="#616161" stroke-linecap="round" stroke-miterlimit="10" stroke-width="3.34"/>
        </g>
      </g>
    </g>
    <g id="Group_1951" data-name="Group 1951" transform="translate(194.836 424.872)">
      <g id="Group_1950" data-name="Group 1950">
        <g id="Group_1949" data-name="Group 1949">
          <g id="Group_1948" data-name="Group 1948" transform="translate(24.82 19.259)">
            <path id="Path_6902" data-name="Path 6902" d="M152.133,436.281a10.952,10.952,0,0,0,12.953,0" transform="translate(-151.245 -424.952)" fill="none" stroke="#616161" stroke-linecap="round" stroke-miterlimit="10" stroke-width="3.34"/>
            <path id="Path_6903" data-name="Path 6903" d="M152.553,430.754a.441.441,0,0,1-.444.438.451.451,0,0,1-.444-.438.444.444,0,0,1,.444-.446A.434.434,0,0,1,152.553,430.754Z" transform="translate(-151.665 -430.308)" fill="none" stroke="#616161" stroke-linecap="round" stroke-miterlimit="10" stroke-width="3.34"/>
            <path id="Path_6904" data-name="Path 6904" d="M159.844,430.754a.449.449,0,0,1-.45.438.442.442,0,0,1-.432-.438.435.435,0,0,1,.432-.446A.442.442,0,0,1,159.844,430.754Z" transform="translate(-145.122 -430.308)" fill="none" stroke="#616161" stroke-linecap="round" stroke-miterlimit="10" stroke-width="3.34"/>
          </g>
          <path id="Path_6905" data-name="Path 6905" d="M161.091,469.629a25.14,25.14,0,1,1,16.554-1.356" transform="translate(-135.252 -420.154)" fill="none" stroke="#616161" stroke-linecap="round" stroke-miterlimit="10" stroke-width="3.34"/>
          <path id="Path_6906" data-name="Path 6906" d="M163.032,480.774v25.167a7.879,7.879,0,0,1-7.883,7.875h0a7.874,7.874,0,0,1-7.875-7.875V480.774" transform="translate(-130.782 -365.797)" fill="none" stroke="#616161" stroke-linecap="round" stroke-linejoin="round" stroke-width="3.34"/>
          <path id="Path_6907" data-name="Path 6907" d="M155.572,505.941a7.873,7.873,0,0,0,7.875,7.875h0a7.872,7.872,0,0,0,7.883-7.875V480.774" transform="translate(-123.342 -365.797)" fill="none" stroke="#616161" stroke-linecap="round" stroke-miterlimit="10" stroke-width="3.34"/>
          <path id="Path_6908" data-name="Path 6908" d="M139.165,483.829c2.462-.042,3.526-1.639,4.615-3.526,1.758-3,7.888-19.443,10.1-22.212" transform="translate(-138.054 -386.136)" fill="none" stroke="#616161" stroke-linecap="round" stroke-miterlimit="10" stroke-width="3.34"/>
          <path id="Path_6909" data-name="Path 6909" d="M156.749,445.024a29.478,29.478,0,0,0-13,13.114c-1.282,2.564-3.378,4.975-5.17,12.146" transform="translate(-138.579 -397.853)" fill="none" stroke="#616161" stroke-linecap="round" stroke-miterlimit="10" stroke-width="3.34"/>
        </g>
      </g>
    </g>
    <path id="Path_6910" data-name="Path 6910" d="M184.863,477.854l3.36,17.469H144.568l5.132-30.773" transform="translate(61.627 44.527)" fill="none" stroke="#616161" stroke-linecap="round" stroke-linejoin="round" stroke-width="3.34"/>
    <line id="Line_342" data-name="Line 342" y2="12.249" transform="translate(210.659 496.827)" fill="none" stroke="#616161" stroke-linecap="round" stroke-linejoin="round" stroke-width="3.34"/>
    <path id="Path_6911" data-name="Path 6911" d="M146.85,448.617a24.724,24.724,0,0,0,30.616,3.49" transform="translate(63.674 30.241)" fill="none" stroke="#616161" stroke-linecap="round" stroke-linejoin="round" stroke-width="3.34"/>
    <g id="Group_1952" data-name="Group 1952" transform="translate(218.196 464.013)">
      <path id="Path_6912" data-name="Path 6912" d="M167.263,467.62A17.853,17.853,0,1,1,178.1,475.9" transform="translate(-138.383 -440.791)" fill="none" stroke="#616161" stroke-linecap="round" stroke-miterlimit="10" stroke-width="3.34"/>
      <path id="Path_6913" data-name="Path 6913" d="M184.419,480.585l-6.98,6.982a15.556,15.556,0,0,1-21.994,0h0a15.556,15.556,0,0,1,0-21.988l8.378-8.37a15.5,15.5,0,0,1,12.008-4.52" transform="translate(-150.895 -430.151)" fill="none" stroke="#616161" stroke-linecap="round" stroke-miterlimit="10" stroke-width="3.34"/>
      <line id="Line_343" data-name="Line 343" x2="4.392" y2="35.807" transform="translate(18.002 23.677)" fill="none" stroke="#f7db05" stroke-linecap="round" stroke-miterlimit="10" stroke-width="3.34"/>
      <line id="Line_344" data-name="Line 344" x2="19.767" transform="translate(19.482 35.109)" fill="none" stroke="#f7db05" stroke-linecap="round" stroke-miterlimit="10" stroke-width="3.34"/>
    </g>
    <g id="Group_1953" data-name="Group 1953" transform="translate(255.22 475.002)">
      <path id="Path_6914" data-name="Path 6914" d="M170.415,449.956a8.53,8.53,0,0,0,6.912,7.344" transform="translate(-170.415 -443.561)" fill="none" stroke="#616161" stroke-linecap="round" stroke-miterlimit="10" stroke-width="3.34"/>
      <path id="Path_6915" data-name="Path 6915" d="M173.943,447.176a.358.358,0,0,1-.493-.027.331.331,0,0,1,.027-.472.339.339,0,0,1,.476.009A.349.349,0,0,1,173.943,447.176Z" transform="translate(-167.771 -446.584)" fill="none" stroke="#616161" stroke-linecap="round" stroke-miterlimit="10" stroke-width="3.34"/>
      <path id="Path_6916" data-name="Path 6916" d="M177.836,451.3a.347.347,0,0,1-.489-.011.345.345,0,0,1,.5-.472A.344.344,0,0,1,177.836,451.3Z" transform="translate(-164.281 -442.88)" fill="none" stroke="#616161" stroke-linecap="round" stroke-miterlimit="10" stroke-width="3.34"/>
    </g>
    <path id="Path_6917" data-name="Path 6917" d="M181.66,459.934c1.9,3.53,4.357,12.994-1.893,15.238-2.394.863-5.277-.451-7.651-1.03-7.811-1.9-6.471-11.287,2.47-9.565" transform="translate(81.732 40.389)" fill="none" stroke="#616161" stroke-linecap="round" stroke-miterlimit="10" stroke-width="3.34"/>
  </g>
</svg>
