<svg xmlns="http://www.w3.org/2000/svg" width="143.6" height="154.923" viewBox="0 0 143.6 154.923">
  <g id="grassroots" transform="translate(-88.639 -124.738)">
    <g id="Group_2462" data-name="Group 2462" transform="translate(90.309 126.582)">
      <path id="Path_7118" data-name="Path 7118" d="M105.535,179.061l7.458-19.007h0l7.037,19.007-7.241,8.154Z" transform="translate(-78.668 -100.991)" fill="none" stroke="#3f585c" stroke-linecap="round" stroke-linejoin="round" stroke-width="3.34"/>
      <g id="Group_2460" data-name="Group 2460" transform="translate(36.669 19.734)">
        <path id="Path_7119" data-name="Path 7119" d="M111.621,144.537a11.537,11.537,0,0,0,13.652,0" transform="translate(-110.684 -132.589)" fill="none" stroke="#3f585c" stroke-linecap="round" stroke-miterlimit="10" stroke-width="3.34"/>
        <path id="Path_7120" data-name="Path 7120" d="M112.027,138.234a.474.474,0,0,1-.475.462.465.465,0,1,1,.475-.462Z" transform="translate(-111.09 -137.766)" fill="none" stroke="#3f585c" stroke-linecap="round" stroke-miterlimit="10" stroke-width="3.34"/>
        <path id="Path_7121" data-name="Path 7121" d="M120.288,138.234a.471.471,0,0,1-.473.462.465.465,0,1,1,.473-.462Z" transform="translate(-104.769 -137.766)" fill="none" stroke="#3f585c" stroke-linecap="round" stroke-miterlimit="10" stroke-width="3.34"/>
      </g>
      <g id="Group_2461" data-name="Group 2461">
        <path id="Path_7122" data-name="Path 7122" d="M114.441,178.756a26.517,26.517,0,1,1,17.451-1.433" transform="translate(-87.015 -126.582)" fill="none" stroke="#3f585c" stroke-linecap="round" stroke-miterlimit="10" stroke-width="3.34"/>
        <path id="Path_7123" data-name="Path 7123" d="M109.643,154.772c-5.918,3.021-11.824,9.869-14.785,15.821-3.254,6.534-4.549,18.063-4.549,37.18,0,3.414,6.292,7.677,9.67-.332,1.42-3.381,3.967-19.7,7.2-26.544" transform="translate(-90.309 -105.03)" fill="none" stroke="#3f585c" stroke-linecap="round" stroke-miterlimit="10" stroke-width="3.34"/>
        <path id="Path_7124" data-name="Path 7124" d="M155.478,149.35l-5.195,20.026a12.357,12.357,0,0,1-11.4,6.721l-12.2.079-.018,75.933a8.469,8.469,0,0,1-8.466,8.475h0a8.472,8.472,0,0,1-8.468-8.475" transform="translate(-75.463 -109.175)" fill="none" stroke="#3f585c" stroke-linecap="round" stroke-linejoin="round" stroke-width="3.34"/>
        <path id="Path_7125" data-name="Path 7125" d="M115.744,163.408h11.812s6.726,0,8.936-6.416l2.1-10.337" transform="translate(-70.863 -111.235)" fill="none" stroke="#3f585c" stroke-linecap="round" stroke-linejoin="round" stroke-width="3.34"/>
      </g>
      <path id="Path_7126" data-name="Path 7126" d="M117.074,198.549v38.006a8.473,8.473,0,0,1-8.468,8.475h0a8.47,8.47,0,0,1-8.461-8.475V169.7" transform="translate(-82.789 -93.621)" fill="none" stroke="#3f585c" stroke-linecap="round" stroke-linejoin="round" stroke-width="3.34"/>
    </g>
    <g id="Group_2463" data-name="Group 2463" transform="translate(158.04 127.099)">
      <path id="Path_7127" data-name="Path 7127" d="M134.521,158.8l8.941-.159,13.816,8-.441-31.417-13.578,9.144-8.937.154a5.714,5.714,0,0,0-5.627,5.795l.037,2.86A5.716,5.716,0,0,0,134.521,158.8Z" transform="translate(-128.694 -120.497)" fill="#6ebf44" stroke="#3f585c" stroke-linecap="round" stroke-linejoin="round" stroke-width="3.34"/>
      <path id="Path_7128" data-name="Path 7128" d="M151.162,138.481a14.278,14.278,0,0,1,.291,20.188" transform="translate(-111.516 -118.002)" fill="#6ebf44" stroke="#3f585c" stroke-linecap="round" stroke-linejoin="round" stroke-width="3.34"/>
      <path id="Path_7129" data-name="Path 7129" d="M156.8,132.678a28.552,28.552,0,0,1,.572,40.378" transform="translate(-107.203 -122.438)" fill="#6ebf44" stroke="#3f585c" stroke-linecap="round" stroke-linejoin="round" stroke-width="3.34"/>
      <path id="Path_7130" data-name="Path 7130" d="M162.442,126.875a42.84,42.84,0,0,1,.861,60.576" transform="translate(-102.892 -126.875)" fill="#6ebf44" stroke="#3f585c" stroke-linecap="round" stroke-linejoin="round" stroke-width="3.34"/>
    </g>
  </g>
</svg>
