<svg xmlns="http://www.w3.org/2000/svg" width="97.532" height="124.372" viewBox="0 0 97.532 124.372"><g transform="translate(-284.077 -285.18)"><path d="M287.887,331.5a6.727,6.727,0,0,0,0,9.511l.952.956a6.745,6.745,0,0,0,9.516,0l28.465-28.47-10.463-10.468Z" transform="translate(6.019 58.338)" fill="#ffd25a"/><path d="M286.764,289.557l-.657.657a6.941,6.941,0,0,0,0,9.81l33.981,33.985,10.467-10.467-33.981-33.985A6.941,6.941,0,0,0,286.764,289.557Z" transform="translate(0 7.674)" fill="#ffd25a"/><path d="M339.826,289.557a6.941,6.941,0,0,0-9.81,0l-33.981,33.985L306.5,334.01l33.985-33.985a6.933,6.933,0,0,0,0-9.81Z" transform="translate(39.092 7.674)" fill="#ffb43c"/><path d="M296.035,336.34a6.727,6.727,0,0,0,6.728,6.728h1.349a6.726,6.726,0,0,0,6.724-6.728V305.518h-14.8Z" transform="translate(39.092 66.484)" fill="#ffb43c"/><path d="M325.453,293.863H298.985l-8.564,47.279a2.082,2.082,0,0,0,.452,1.72,2.106,2.106,0,0,0,1.614.756h39.458a2.1,2.1,0,0,0,2.066-2.476Z" transform="translate(20.624 28.385)" fill="#eb7373"/><path d="M308.734,293.863H295.5v49.755h19.727a2.1,2.1,0,0,0,2.066-2.476Z" transform="translate(37.343 28.385)" fill="#e65a5a"/><path d="M312.535,285.18a22.529,22.529,0,1,0,22.246,22.527A22.389,22.389,0,0,0,312.535,285.18Z" transform="translate(20.308 0)" fill="#fff0dc"/><path d="M295.5,285.18v45.055a22.529,22.529,0,0,0,0-45.055Z" transform="translate(37.343 0)" fill="#ffe1be"/></g></svg>