<svg xmlns="http://www.w3.org/2000/svg" width="162.927" height="161.469" viewBox="0 0 162.927 161.469"><g transform="translate(-900.16 -158.342)"><path d="M990.645,175.558c.2,11.62-.147,20.666-4.32,26.422-4.861,6.7-16.034,7.293-18.6,5.286-3.761-2.943-5.271-14.64-2.067-18.734C971.14,181.531,983.868,182.112,990.645,175.558Z" transform="translate(72.401 19.551)" fill="#f6555c"/><path d="M983.441,196.457l-50.529,69.775c-2.146,2.742-3.833,5.006.621,8.493s6.249,1.307,8.4-1.435l55.594-65.809Z" transform="translate(34.718 43.284)" fill="#9a5639"/><path d="M967.54,204.53a10.855,10.855,0,0,0-2.567,1.175,11.282,11.282,0,0,0,1.553,1.561c2.563,2.007,13.738,1.416,18.6-5.286,4.173-5.755,4.517-14.8,4.32-26.422C989.443,175.558,980.131,200.8,967.54,204.53Z" transform="translate(73.603 19.551)" fill="#db4a4f"/><path d="M974.123,187.557l-18.71,19.007L969.5,217.588l13.956-22.729Z" transform="translate(62.746 33.177)" fill="#fff"/><path d="M1018.618,202.679c0,40.263-37.358,23.278-48.63,35.2-12.132,12.835,10.714,45.745-18.8,45.745-30.714,0-51.031-24.327-51.031-58.727,0-36.758,23.88-66.556,60.639-66.556C989.164,158.342,1018.618,172.008,1018.618,202.679Z" transform="translate(0 0)" fill="#f5f5f5"/><path d="M935.989,212.175a10.823,10.823,0,1,1-10.824-10.823A10.823,10.823,0,0,1,935.989,212.175Z" transform="translate(16.105 48.843)" fill="#e31b23"/><path d="M928.086,197.721A10.824,10.824,0,1,1,917.26,186.9,10.824,10.824,0,0,1,928.086,197.721Z" transform="translate(7.128 32.429)" fill="#f6555c"/><circle cx="10.823" cy="10.823" r="10.823" transform="translate(921.751 184.285)" fill="#ffbd22"/><path d="M947.245,175.564a10.823,10.823,0,1,1-10.823-10.823A10.823,10.823,0,0,1,947.245,175.564Z" transform="translate(28.888 7.267)" fill="#5f0f13"/><path d="M962.609,183.229a10.823,10.823,0,1,1-10.823-10.823A10.823,10.823,0,0,1,962.609,183.229Z" transform="translate(46.336 15.971)" fill="#616161"/><path d="M989.077,199.069l-57.032,72.69c4.455,3.487,6.249,1.307,8.393-1.435l55.594-65.809Z" transform="translate(36.209 46.25)" fill="#664639"/></g></svg>