<svg xmlns="http://www.w3.org/2000/svg" width="69.519" height="176.344" viewBox="0 0 69.519 176.344"><g transform="translate(-918.068 -486.399)"><path d="M929.805,486.4l4.728,28.437V577.86h15.323V514.836l4.728-28.437Z" transform="translate(10.633 0)" fill="#664639"/><path d="M942.176,511.25V486.4H929.805l4.728,28.436V597.46h7.662V511.25Z" transform="translate(10.633 0)" fill="#9a5639"/><path d="M987.587,596.159c0-15.066-12.52-19.311-12.52-29.5,0-5.3,3.608-7.85,3.608-17.613,0-17.091-24.954-16.578-25.846-16.553-.894-.025-25.848-.538-25.848,16.553,0,9.762,3.608,12.308,3.608,17.613,0,10.185-12.52,14.43-12.52,29.5,0,15.04,15.434,24.791,34.693,24.829h.132C972.154,620.949,987.587,611.2,987.587,596.159Z" transform="translate(0 41.756)" fill="#f7db05"/><path d="M962.231,549.05c0-17.091-24.954-16.578-25.846-16.553l-.166,0v88.489c.034,0,.067,0,.1,0h.132c19.261-.038,34.694-9.789,34.694-24.827,0-15.068-12.52-19.313-12.52-29.5C958.623,561.358,962.231,558.812,962.231,549.05Z" transform="translate(16.444 41.756)" fill="#ff5852"/><circle cx="12.571" cy="12.571" r="12.571" transform="translate(940.257 590.472)" fill="#fff" opacity="0.5"/><path d="M952.039,552.669A10.665,10.665,0,1,1,941.375,542,10.664,10.664,0,0,1,952.039,552.669Z" transform="translate(11.453 50.374)" fill="#664639"/><rect width="28.053" height="4.931" transform="translate(938.801 635.581)" fill="#664639"/><rect width="15.323" height="6.29" transform="translate(945.166 515.13)" fill="#ffbd22"/><g transform="translate(933.922 488.585)"><path d="M931.943,489.372a1.826,1.826,0,0,1-1.826,1.826h-1.906a1.826,1.826,0,0,1-1.826-1.826h0a1.826,1.826,0,0,1,1.826-1.826h1.906a1.826,1.826,0,0,1,1.826,1.826Z" transform="translate(-926.386 -487.546)" fill="#ffbd22"/><path d="M932.862,494.04a1.826,1.826,0,0,1-1.826,1.826H929.13a1.827,1.827,0,0,1-1.828-1.826h0a1.828,1.828,0,0,1,1.828-1.828h1.906a1.828,1.828,0,0,1,1.826,1.828Z" transform="translate(-925.556 -483.319)" fill="#ffbd22"/><path d="M933.778,498.7a1.827,1.827,0,0,1-1.828,1.828h-1.906a1.826,1.826,0,0,1-1.826-1.828h0a1.826,1.826,0,0,1,1.826-1.826h1.906a1.826,1.826,0,0,1,1.828,1.826Z" transform="translate(-924.725 -479.091)" fill="#ffbd22"/></g><g transform="translate(962.589 488.585)"><path d="M943.261,489.372a1.826,1.826,0,0,0,1.826,1.826h1.906a1.826,1.826,0,0,0,1.826-1.826h0a1.826,1.826,0,0,0-1.826-1.826h-1.906a1.826,1.826,0,0,0-1.826,1.826Z" transform="translate(-939.766 -487.546)" fill="#e1a01c"/><path d="M942.344,494.04a1.826,1.826,0,0,0,1.826,1.826h1.906a1.827,1.827,0,0,0,1.828-1.826h0a1.828,1.828,0,0,0-1.828-1.828H944.17a1.828,1.828,0,0,0-1.826,1.828Z" transform="translate(-940.596 -483.319)" fill="#e1a01c"/><path d="M941.427,498.7a1.827,1.827,0,0,0,1.828,1.828h1.906a1.827,1.827,0,0,0,1.826-1.828h0a1.826,1.826,0,0,0-1.826-1.826h-1.906a1.827,1.827,0,0,0-1.828,1.826Z" transform="translate(-941.427 -479.091)" fill="#e1a01c"/></g><g transform="translate(947.539 521.42)" opacity="0.5"><rect width="1.204" height="114.161" fill="#fff"/><rect width="1.204" height="114.161" transform="translate(3.125)" fill="#fff"/><rect width="1.204" height="114.161" transform="translate(6.25)" fill="#fff"/><rect width="1.204" height="114.161" transform="translate(9.375)" fill="#fff"/></g></g></svg>