<svg xmlns="http://www.w3.org/2000/svg" width="152.928" height="144.011" viewBox="0 0 152.928 144.011"><g transform="translate(-54.663 -390.119)"><path d="M76.824,442.541h29.269l6.105-34.348H70.715Z" transform="translate(39.668 44.665)" fill="#f7db05"/><path d="M76.689,442.541H91.327l6.105-34.348H76.689Z" transform="translate(54.434 44.665)" fill="#f7db05"/><path d="M72.829,393.223l-.34.059a5.036,5.036,0,0,0-4.079,5.828l8.5,48.164,10.24-1.805L78.658,397.3A5.031,5.031,0,0,0,72.829,393.223Z" transform="translate(33.785 7.481)" fill="#f7db05"/><path d="M94.282,393.282l-.337-.059A5.025,5.025,0,0,0,88.12,397.3l-8.494,48.168,10.24,1.805,8.494-48.164A5.028,5.028,0,0,0,94.282,393.282Z" transform="translate(61.691 7.481)" fill="#f7db05"/><path d="M139.282,432.621l-20.626-14.534H89.389L68.763,432.621a7.385,7.385,0,0,0-3.044,7.168l3.235,20.949a5.039,5.039,0,0,0,4.981,4.273h3.756a5.038,5.038,0,0,0,5.013-5.561l-1.236-11.917a3.577,3.577,0,0,1,1.833-3.5l17.343-9.57a6.988,6.988,0,0,1,6.752,0l17.35,9.57a3.586,3.586,0,0,1,1.829,3.5l-1.236,11.917a5.038,5.038,0,0,0,5.013,5.561h3.756a5.045,5.045,0,0,0,4.985-4.273l3.235-20.949A7.4,7.4,0,0,0,139.282,432.621Z" transform="translate(27.104 69.118)" fill="#de4126"/><path d="M111.954,432.621,91.327,418.087H76.689v15.506a6.981,6.981,0,0,1,3.378.868l17.35,9.57a3.586,3.586,0,0,1,1.829,3.5L98.01,459.451a5.038,5.038,0,0,0,5.013,5.561h3.756a5.045,5.045,0,0,0,4.985-4.27L115,439.789A7.4,7.4,0,0,0,111.954,432.621Z" transform="translate(54.433 69.118)" fill="#e31b23"/><path d="M.436,0H152.491a.435.435,0,0,1,.435.435V2.71a.435.435,0,0,1-.435.435H.436A.436.436,0,0,1,0,2.71V.436A.436.436,0,0,1,.436,0Z" transform="translate(54.663 405.809)" fill="#de4126"/><path d="M151.642,394.639H76.69v3.145h74.952a1.513,1.513,0,0,0,1.514-1.514v-.118A1.513,1.513,0,0,0,151.642,394.639Z" transform="translate(54.435 11.171)" fill="#de4126"/><path d="M57.223,394.493v19.62a3.129,3.129,0,0,0,3.131,3.128h5.939V391.365H60.354A3.131,3.131,0,0,0,57.223,394.493Z" transform="translate(6.326 3.08)" fill="#616161"/><path d="M.9,0H20.142a.9.9,0,0,1,.9.9V33.627a.9.9,0,0,1-.9.9H.9a.9.9,0,0,1-.9-.9V.9A.9.9,0,0,1,.9,0Z" transform="translate(68.084 390.119)" fill="#f7db05"/><path d="M99.484,391.365H93.545V417.24h5.939a3.126,3.126,0,0,0,3.128-3.128v-19.62A3.128,3.128,0,0,0,99.484,391.365Z" transform="translate(96.089 3.08)" fill="#616161"/><path d="M.9,0h19.24a.9.9,0,0,1,.9.9V33.627a.9.9,0,0,1-.9.9H.9a.9.9,0,0,1-.9-.9V.9A.9.9,0,0,1,.9,0Z" transform="translate(173.125 390.119)" fill="#f7db05"/><path d="M87.709,401.433a15.48,15.48,0,1,0,15.485,15.482A15.482,15.482,0,0,0,87.709,401.433Z" transform="translate(43.413 27.961)" fill="#eb7373"/><path d="M76.689,401.433v30.96a15.48,15.48,0,1,0,0-30.96Z" transform="translate(54.433 27.961)" fill="#e65a5a"/></g></svg>