<svg xmlns="http://www.w3.org/2000/svg" width="305.266" height="120.323" viewBox="0 0 305.266 120.323"><g transform="translate(-1332 -1980.845)"><path d="M255.716,105.589c-10.7-9.443-27.541-9.171-40.837-8.383-13.59.8-26.958,1.244-40.466,1.562-19.88-1.422-47.252-3.234-55,12.177a4.359,4.359,0,0,0-.447.814c-.184.358-10.057,33.822-4.866,48.952,5.751,16.76,26.881,21.1,42.254,21.336,2.442.037,4.886-.066,7.323-.224,1.615,2.639,3.377,5.186,5.022,7.806,2.023,3.223,2.9,7.271,4.587,10.7.976,1.985,4.324,2.521,5.761.742,3.372-4.171,5.525-9.182,8.228-13.8,1.318-2.257,2.69-4.493,4.05-6.725.272-.447.579-.99.9-1.56.448-.026.9-.066,1.349-.081,12.108-.472,24.189,1.183,36.293.943,19.041-.379,30.781-12.146,35.99-29.7C270.266,135.278,267.723,116.184,255.716,105.589Z" transform="translate(1219.411 1899.019)" fill="#f7db05"/><text transform="translate(1406.79 2054.324)" fill="#616161" font-size="34" font-family="Pacifico-Regular, Pacifico"><tspan x="-42.517" y="0">Hello</tspan></text><path d="M332.565,341.5c-14.521-8.129-34.894-5.57-51.065-6.707-19-1.34-69.935-6.744-63.558,25.941.155.8-.405,23.134-1.749,33.744-1.225,9.688-1.147,19.616,3.868,28.236,7.675,13.2,26.32,13.467,39.568,12.837,6.046-.291,12.065-.98,18.088-1.583a65.744,65.744,0,0,1,3.141,12.613c.376,2.878.969,6.593,4.4,7.181,4.553.781,7.332-5.035,9.777-7.826,2.159-2.462,4.491-4.687,6.479-7.3,1.2-1.573,2.278-3.167,3.442-4.7a101.507,101.507,0,0,0,12.728.3c23.3-1.255,30.685-17.839,30.781-38.9C348.548,377.6,350.416,351.495,332.565,341.5Z" transform="translate(1288.709 1647.221)" fill="#ff5852"/><text transform="translate(1570.008 2041.168)" fill="#fff" font-size="34" font-family="Satisfy-Regular, Satisfy"><tspan x="-46.435" y="0">Join us</tspan></text></g></svg>