<svg xmlns="http://www.w3.org/2000/svg" width="139.113" height="148.688" viewBox="0 0 139.113 148.688"><g transform="translate(-53.824 -278.579)"><g transform="translate(87.734 278.579)"><path d="M78.964,324.483a2.906,2.906,0,0,0,2.978,2.824h22.094a2.907,2.907,0,0,0,2.982-2.824V311.074H78.964Z" transform="translate(-13.846 -183.074)" fill="#616161"/><path d="M62.488,318.221a2.147,2.147,0,0,0,2.147,2.147h52.539a4.608,4.608,0,0,0,2.856-.993l7.5-5.94H62.488Z" transform="translate(-62.27 -176.135)" fill="#616161"/><path d="M71.148,320.368H91.722a4.587,4.587,0,0,0,2.856-1l7.5-5.936H71.148Z" transform="translate(-36.818 -176.135)" fill="#616161"/><path d="M76.361,278.579V412.208h32.206l1.954-14.472a430.6,430.6,0,0,1,11.23-55.127c6.31-23.075,6.858-43.452.055-64.029Z" transform="translate(-21.497 -278.579)" fill="#fff0dc"/><path d="M86.975,278.579l-5.66,133.629H94.007l1.954-14.472a429.934,429.934,0,0,1,11.234-55.127c6.306-23.075,6.854-43.452.051-64.029Z" transform="translate(-6.937 -278.579)" fill="#ffe1be"/><path d="M158.893,312.685a3.215,3.215,0,0,0-2.513-.776c-10.97,1.347-17.241-1.068-24.056-5.617a4.617,4.617,0,0,0-3.655-.646l-23.288,5.712c-4.349,5.9-14.641,11.1-31.666,14.724a15.511,15.511,0,0,0-11.191,9.454l0,.008a1.255,1.255,0,0,0,1.17,1.717h88.373a7.915,7.915,0,0,0,7.918-7.914V315.088A3.214,3.214,0,0,0,158.893,312.685Z" transform="translate(-62.433 -199.414)" fill="#eb7373"/><path d="M131.42,311.906c-1.142-.091-7.977,1.382-15.319-.9-8.3-2.568-9.3-6.271-13.046-5.353l-23.288,5.712a25.974,25.974,0,0,1-8.619,6.96V337.27h55.3a7.915,7.915,0,0,0,7.918-7.914V315.1A3.206,3.206,0,0,0,131.42,311.906Z" transform="translate(-36.818 -199.422)" fill="#e65a5a"/><path d="M97.883,309.587c-4.349,5.9-14.641,11.1-31.666,14.724-.421.087-.827.2-1.233.323,4.987,4.5,12.688,7.39,21.334,7.39,15.035,0,27.227-8.733,27.227-19.506a14.57,14.57,0,0,0-1.5-6.4Z" transform="translate(-54.934 -197.643)" fill="#616161"/><path d="M79.767,309.587a25.924,25.924,0,0,1-8.619,6.96V331.91c13.649-1.052,24.28-9.332,24.28-19.392a14.57,14.57,0,0,0-1.5-6.4Z" transform="translate(-36.818 -197.643)" fill="#616161"/><path d="M98.5,306.746l-4.057.993c-4.053,5.5-13.271,10.383-28.29,13.96,3.025,2.3,10.541,5.515,15.626,5.2a29.926,29.926,0,0,0,17.344-5.1c4.258-3.049,6.606-7,6.606-11.124a10.872,10.872,0,0,0-.3-2.513Z" transform="translate(-51.496 -195.795)" fill="#fff0dc"/><path d="M83.736,306.746l-4.057.993a25.76,25.76,0,0,1-8.5,6.9V326.65a28.463,28.463,0,0,0,13.18-4.857c4.258-3.049,6.606-7,6.606-11.124a10.872,10.872,0,0,0-.3-2.513Z" transform="translate(-36.73 -195.795)" fill="#ffe1be"/><path d="M92.66,303.137H89.316a6.949,6.949,0,0,0-5.53,2.746L72.819,320.359a.976.976,0,0,0,.78,1.568c10.565,3.108,26.5.662,26.5-11.36A7.434,7.434,0,0,0,92.66,303.137Z" transform="translate(-32.49 -206.402)" fill="#de4126"/><path d="M86.563,303.214,75.408,322.9C94.564,322.2,95.32,305.79,86.563,303.214Z" transform="translate(-24.298 -206.175)" fill="#de4126"/><path d="M85.72,303.137a6.944,6.944,0,0,0-5.53,2.746l-6.346,8.382,4.353.894a7.87,7.87,0,0,0,8.394-3.781l4.573-7.937a7.568,7.568,0,0,0-2.1-.3Z" transform="translate(-28.894 -206.402)" fill="#eb7373"/><g transform="translate(34.772 114.55)"><path d="M73.544,308.15a1.278,1.278,0,0,0-2.017,1.572l4.691,6.015a1.291,1.291,0,0,0,1.008.492,1.276,1.276,0,0,0,1.008-2.064Z" transform="translate(-71.26 -307.659)" fill="#00465a"/></g><g transform="translate(30.123 116.765)"><path d="M72.365,308.715a1.278,1.278,0,1,0-2.017,1.572l4.7,6.015a1.275,1.275,0,0,0,1.008.488,1.244,1.244,0,0,0,.784-.268,1.282,1.282,0,0,0,.225-1.792Z" transform="translate(-70.08 -308.222)" fill="#145a6e"/></g><path d="M71.178,309.011v4.152l.638.819a1.275,1.275,0,0,0,1.008.488,1.244,1.244,0,0,0,.784-.268,1.282,1.282,0,0,0,.225-1.792Z" transform="translate(-36.73 -189.138)" fill="#00465a"/><g transform="translate(25.473 118.979)"><path d="M71.182,309.276a1.275,1.275,0,1,0-2.009,1.572l4.691,6.015a1.279,1.279,0,0,0,1.008.492,1.26,1.26,0,0,0,.784-.268,1.287,1.287,0,0,0,.225-1.8Z" transform="translate(-68.9 -308.784)" fill="#145a6e"/></g><g transform="translate(20.825 121.196)"><path d="M70,309.84a1.276,1.276,0,1,0-2.013,1.568l4.7,6.015a1.276,1.276,0,1,0,2.013-1.568Z" transform="translate(-67.719 -309.347)" fill="#145a6e"/></g><path d="M105.041,307.922a17.685,17.685,0,0,0-10.75,7.409c-4.026,6.133-8.922,10.651-15.327,15.1h24.513a7.915,7.915,0,0,0,7.918-7.914v-9.273A5.415,5.415,0,0,0,105.041,307.922Z" transform="translate(-13.846 -192.587)" fill="#de4126"/><path d="M63.348,317.881a1.768,1.768,0,0,0,1.769,1.769h5.944a1.769,1.769,0,0,0,1.773-1.769V315.2H63.348Z" transform="translate(-59.743 -170.962)" fill="#fff0dc"/><path d="M67.717,317.881a1.769,1.769,0,0,0,1.773,1.769h5.944a1.768,1.768,0,0,0,1.769-1.769V315.2H67.717Z" transform="translate(-46.902 -170.962)" fill="#fff0dc"/><path d="M72.087,317.881a1.772,1.772,0,0,0,1.773,1.769H79.8a1.772,1.772,0,0,0,1.773-1.769V315.2H72.087Z" transform="translate(-34.058 -170.962)" fill="#ffe1be"/><path d="M80.008,317.881a1.617,1.617,0,0,0,1.4,1.769h4.7a1.614,1.614,0,0,0,1.4-1.769V315.2h-7.5Z" transform="translate(-10.778 -170.962)" fill="#ffe1be"/><path d="M83.361,317.881a1.614,1.614,0,0,0,1.4,1.769h4.7a1.619,1.619,0,0,0,1.4-1.769V315.2h-7.5Z" transform="translate(-0.923 -170.962)" fill="#ffe1be"/><path d="M76.361,280.509v6.023h48.884q-.526-3.019-1.257-6.023Z" transform="translate(-21.497 -272.907)" fill="#f7db05"/><path d="M82.861,280.509l-.256,6.023h24.288q-.526-3.019-1.257-6.023Z" transform="translate(-3.145 -272.907)" fill="#f7db05"/><path d="M76.361,283.427v6.019h50.2c-.106-2.017-.272-4.018-.5-6.019Z" transform="translate(-21.497 -264.33)" fill="#f7db05"/><path d="M82.74,283.427l-.26,6.074,26.092-.055c-.106-2.017-.272-4.018-.5-6.019Z" transform="translate(-3.513 -264.33)" fill="#f7db05"/></g><g transform="translate(53.824 304.006)"><path d="M92.691,285.034A38.865,38.865,0,1,0,131.553,323.9,38.868,38.868,0,0,0,92.691,285.034Z" transform="translate(-53.824 -285.034)" fill="#fff0dc"/><path d="M63.691,285.034v77.729a38.865,38.865,0,0,0,0-77.729Z" transform="translate(-24.824 -285.034)" fill="#ffe1be"/><path d="M60.114,302.009c1.69,5.448,3.557,11.01,5.436,16.158,5.582.138,11.4.138,16.977,0,1.879-5.152,3.742-10.714,5.428-16.158-4.467-3.384-9.249-6.878-13.917-10.179C69.375,295.127,64.589,298.625,60.114,302.009Z" transform="translate(-35.337 -265.06)" fill="#145a6e"/><path d="M79.649,285.625c-1-.173-2-.315-3.025-.41a37.308,37.308,0,0,0-3.923-.181,32.357,32.357,0,0,0-3.585.181q-1.79.172-3.529.5a20.626,20.626,0,0,0-5.018,6.168c3.6,1.82,7.724,4.112,12.132,6.838,4.408-2.722,8.516-5.01,12.12-6.83C83.029,288.914,81.264,286.7,79.649,285.625Z" transform="translate(-34.003 -285.034)" fill="#145a6e"/><path d="M63.962,288.037a.425.425,0,0,0-.421.425c0,4.991,0,11.089,0,17.517a.421.421,0,0,0,.843,0c0-6.429,0-12.526,0-17.517A.423.423,0,0,0,63.962,288.037Z" transform="translate(-25.265 -276.208)" fill="#145a6e"/><path d="M74.59,290.355c-1.166,4.069-2.655,8.658-4.487,13.546a119.626,119.626,0,0,1,8.627,10.312,24.445,24.445,0,0,0,4.979-6.074,38.78,38.78,0,0,0-3.348-15.693A44.828,44.828,0,0,0,74.59,290.355Z" transform="translate(-5.979 -269.395)" fill="#00465a"/><path d="M83.381,293.62c-4.735,1.028-10.616,2.277-17.009,3.6a.422.422,0,0,0-.331.5.432.432,0,0,0,.418.335l.083-.008c6.4-1.328,12.282-2.576,17.017-3.608a.421.421,0,1,0-.177-.823Z" transform="translate(-17.942 -259.83)" fill="#00465a"/><path d="M72.134,301.212a62.952,62.952,0,0,1-6.669,10.809,73.657,73.657,0,0,0,7.145,2.911,38.92,38.92,0,0,0,13.9-9.3c-.087-1.623-.217-3.364-.4-5.231C82.045,300.87,77.266,301.138,72.134,301.212Z" transform="translate(-19.61 -239.858)" fill="#00465a"/><path d="M65.67,297.4a.421.421,0,0,0-.705.461c3.348,5.148,6.551,10.037,9.257,14.137a.417.417,0,0,0,.354.193.411.411,0,0,0,.228-.071.42.42,0,0,0,.122-.583C72.22,307.432,69.018,302.548,65.67,297.4Z" transform="translate(-21.288 -249.256)" fill="#00465a"/><path d="M57.3,292.183a38.724,38.724,0,0,0-3.478,16.075c0,.248.008.492.008.737a27.608,27.608,0,0,0,4.5,5.219A118.79,118.79,0,0,1,66.957,303.9c-1.836-4.888-3.325-9.477-4.487-13.546A47.269,47.269,0,0,0,57.3,292.183Z" transform="translate(-53.824 -269.395)" fill="#145a6e"/><path d="M74.216,297.224c-6.4-1.328-12.282-2.576-17.009-3.6a.421.421,0,1,0-.181.823c4.735,1.032,10.62,2.277,17.017,3.608l.083.008a.423.423,0,0,0,.418-.335A.429.429,0,0,0,74.216,297.224Z" transform="translate(-45.39 -259.83)" fill="#145a6e"/><path d="M56.829,300.4c-.165,1.686-.288,3.266-.37,4.755a39,39,0,0,0,14.125,9.686,73.855,73.855,0,0,0,6.893-2.824,63.7,63.7,0,0,1-6.669-10.809C65.676,301.138,60.9,300.87,56.829,300.4Z" transform="translate(-46.08 -239.858)" fill="#145a6e"/><path d="M69.713,297.278a.415.415,0,0,0-.583.122c-3.348,5.137-6.547,10.025-9.261,14.137a.421.421,0,1,0,.705.461c2.71-4.108,5.916-9,9.265-14.137A.428.428,0,0,0,69.713,297.278Z" transform="translate(-36.255 -249.256)" fill="#145a6e"/><path d="M66.88,286.578a.421.421,0,0,0-.414.733,86.25,86.25,0,0,1,20.05,16.02.439.439,0,0,0,.319.138.424.424,0,0,0,.315-.705A87.336,87.336,0,0,0,66.88,286.578Z" transform="translate(-17.299 -280.657)" fill="#00465a"/><path d="M79.9,295.277a.427.427,0,0,0-.516.3,96.322,96.322,0,0,1-9.292,23.449.416.416,0,0,0,.154.575.389.389,0,0,0,.209.059.418.418,0,0,0,.362-.209A97.15,97.15,0,0,0,80.2,295.793.418.418,0,0,0,79.9,295.277Z" transform="translate(-6.175 -254.969)" fill="#00465a"/><path d="M76.021,286.579A86.855,86.855,0,0,0,55.77,302.772a.419.419,0,0,0,.315.7.408.408,0,0,0,.311-.138,85.978,85.978,0,0,1,20.038-16.024.421.421,0,1,0-.414-.733Z" transform="translate(-48.424 -280.654)" fill="#145a6e"/><path d="M55.457,295.577a.421.421,0,0,0-.815.213A96.988,96.988,0,0,0,64,319.444a.413.413,0,0,0,.362.209.419.419,0,0,0,.213-.055.424.424,0,0,0,.154-.579A96.1,96.1,0,0,1,55.457,295.577Z" transform="translate(-51.463 -254.969)" fill="#145a6e"/><path d="M79.907,303.21c-6.027.248-12.148.256-18.187.02a.422.422,0,1,0-.035.843c2.942.114,5.9.173,8.859.173,3.143,0,6.287-.067,9.4-.2a.419.419,0,0,0,.4-.441A.413.413,0,0,0,79.907,303.21Z" transform="translate(-31.914 -231.614)" fill="#145a6e"/><path d="M72.814,303.209l-.02,0c-3.017.126-6.054.189-9.1.193v.843q4.585-.006,9.135-.2a.422.422,0,0,0-.02-.843Z" transform="translate(-24.801 -231.617)" fill="#00465a"/><path d="M70.6,285.625c-1-.173-1.97-.3-3.025-.41-1.229-.134-3.923-.181-3.923-.181l-.008,13.688.008,0c4.408-2.722,8.516-5.01,12.12-6.83C73.982,288.914,72.217,286.7,70.6,285.625Z" transform="translate(-24.957 -285.034)" fill="#00465a"/><path d="M63.648,291.83v26.439c2.848,0,5.7-.035,8.493-.1,1.879-5.152,3.742-10.714,5.428-16.158-4.467-3.384-9.249-6.878-13.917-10.179Z" transform="translate(-24.951 -265.06)" fill="#00465a"/></g></g></svg>