<svg xmlns="http://www.w3.org/2000/svg" width="137.695" height="113.946" viewBox="0 0 137.695 113.946"><g transform="translate(-250.385 -844.628)"><rect width="50.879" height="15.439" transform="translate(269.743 943.136)" fill="#d8d8d8"/><rect width="50.879" height="15.439" transform="translate(320.622 943.136)" fill="#bfbfbf"/><path d="M345.181,869.185a24.548,24.548,0,0,0-47.4-8.979,24.549,24.549,0,1,0-28.039,32.974v54.685h56.926v-54.9A24.547,24.547,0,0,0,345.181,869.185Z" transform="translate(0)" fill="#ff5852"/><path d="M353.481,869.756a24.544,24.544,0,0,0-45.838-12.221,24.552,24.552,0,0,0-21.62-12.907v21.995h0v81.242H336.9v-54.9A24.549,24.549,0,0,0,353.481,869.756Z" transform="translate(34.599)" fill="#d8d8d8"/><circle cx="9.404" cy="9.404" r="9.404" transform="translate(274.203 866.485)" fill="#d8d8d8"/><path d="M281.931,871.436a4.959,4.959,0,1,1-4.959-4.959A4.96,4.96,0,0,1,281.931,871.436Z" transform="translate(20.998 21.212)" fill="#d8d8d8"/></g></svg>