<svg xmlns="http://www.w3.org/2000/svg" width="95.406" height="130.375" viewBox="0 0 95.406 130.375"><g transform="translate(-585.637 -158.237)"><rect width="95.406" height="130.375" rx="3.231" transform="translate(585.637 158.237)" fill="#616161"/><rect width="80.185" height="106.49" rx="2.257" transform="translate(593.247 167.468)" fill="#f7db05"/><g transform="translate(621.236 278.647)" opacity="0.4"><path d="M607.127,222a2.638,2.638,0,1,0,2.638,2.634A2.637,2.637,0,0,0,607.127,222Z" transform="translate(-604.489 -222.002)" fill="#565656" fill-rule="evenodd"/><path d="M612.14,222a2.638,2.638,0,1,0,2.638,2.634A2.636,2.636,0,0,0,612.14,222Z" transform="translate(-600.036 -222.002)" fill="#565656" fill-rule="evenodd"/><path d="M617.152,222a2.638,2.638,0,1,0,2.638,2.634A2.637,2.637,0,0,0,617.152,222Z" transform="translate(-595.583 -222.002)" fill="#565656" fill-rule="evenodd"/></g><path d="M610.327,176.513a7.421,7.421,0,1,1-7.421-7.421A7.42,7.42,0,0,1,610.327,176.513Z" transform="translate(8.748 9.643)" fill="#fff" fill-rule="evenodd"/><path d="M612.233,182.192a3.872,3.872,0,1,1-3.871-3.873A3.872,3.872,0,0,1,612.233,182.192Z" transform="translate(16.747 17.84)" fill="#fff" fill-rule="evenodd"/></g></svg>