<svg xmlns="http://www.w3.org/2000/svg" width="116.393" height="136.982" viewBox="0 0 116.393 136.982"><g transform="translate(-580.32 -668.177)"><path d="M597.078,698.381c0-3.4,1.95-6.154,4.357-6.154V674.073H597.3l-9.615,23.185v12.49l3.415,1.617v5.843l-2.875,7.009,10.873,8,2.336-8.718V704.537C599.028,704.537,597.078,701.782,597.078,698.381Z" transform="translate(6.718 5.376)" fill="#616161"/><path d="M588.128,706.65l3.8-6.116,3.019-.233,10.873,8s-7.458,15.121-7.458,33.053,6.541,27.424,6.541,27.424a5,5,0,0,1-1.161,6.644c-3.587,2.849-18.285-7.906-18.285-34.169,0-15.777,2.252-23.1,2.252-23.1s-7.594-6.646-7.382-8.754S583.7,706.755,588.128,706.65Z" transform="translate(0 29.293)" fill="#ffbd22"/><path d="M599.237,698.381c0-3.4-1.95-6.154-4.359-6.154V674.073h4.135l9.615,23.185v12.49l-3.415,1.617v5.843l2.875,7.009-10.875,8-2.336-8.718V704.537C597.287,704.537,599.237,701.782,599.237,698.381Z" transform="translate(13.275 5.376)" fill="#d8d8d8"/><path d="M613.791,706.65l-3.8-6.116-3.019-.233-10.875,8s7.458,15.121,7.458,33.053-6.539,27.424-6.539,27.424a5,5,0,0,0,1.16,6.644c3.587,2.849,18.285-7.906,18.285-34.169,0-15.777-2.254-23.1-2.254-23.1s7.6-6.646,7.384-8.754S618.22,706.755,613.791,706.65Z" transform="translate(14.39 29.293)" fill="#e1a01c"/><rect width="12.164" height="119.565" transform="translate(657.042 685.594)" fill="#664639"/><rect width="16.173" height="7.533" transform="translate(638.658 674.018)" fill="#d8d8d8"/><rect width="17.14" height="6.22" transform="translate(654.554 685.594)" fill="#d8d8d8"/><rect width="9.814" height="15.62" transform="translate(633.751 669.974)" fill="#fff"/><path d="M639.758,668.177H617.919v19.077h21.839c10.229-9.263,19.352,5.942,19.352,5.942h3.317C662.427,668.592,639.758,668.177,639.758,668.177Z" transform="translate(34.286 0)" fill="#616161"/></g></svg>