<svg xmlns="http://www.w3.org/2000/svg" width="139.773" height="163.551" viewBox="0 0 139.773 163.551">
  <g id="mummies" transform="translate(-254.94 -411.789)">
    <g id="Group_2454" data-name="Group 2454" transform="translate(256.609 455.313)">
      <g id="Group_2452" data-name="Group 2452" transform="translate(26.511 16.997)">
        <path id="Path_7106" data-name="Path 7106" d="M271.3,450.648a9.945,9.945,0,0,0,11.762,0" transform="translate(-270.496 -440.355)" fill="none" stroke="#3f585c" stroke-linecap="round" stroke-miterlimit="10" stroke-width="3.34"/>
        <path id="Path_7107" data-name="Path 7107" d="M271.673,445.512a.411.411,0,0,1-.411.4.4.4,0,0,1,0-.8A.408.408,0,0,1,271.673,445.512Z" transform="translate(-270.868 -445.112)" fill="none" stroke="#3f585c" stroke-linecap="round" stroke-miterlimit="10" stroke-width="3.34"/>
        <path id="Path_7108" data-name="Path 7108" d="M278.425,445.512a.407.407,0,0,1-.4.4.4.4,0,1,1,.4-.4Z" transform="translate(-265.06 -445.112)" fill="none" stroke="#3f585c" stroke-linecap="round" stroke-miterlimit="10" stroke-width="3.34"/>
      </g>
      <g id="Group_2453" data-name="Group 2453">
        <path id="Path_7109" data-name="Path 7109" d="M277.206,480.91a22.839,22.839,0,1,1,15.032-1.231" transform="translate(-253.582 -435.97)" fill="none" stroke="#3f585c" stroke-linecap="round" stroke-miterlimit="10" stroke-width="3.34"/>
        <path id="Path_7110" data-name="Path 7110" d="M273.264,459.014c-5.1,2.6-10.187,8.5-12.736,13.628-2.806,5.628-3.919,10.96-3.919,27.424,0,2.941,5.613,4.444,8.129,2.434,2.471-1.971,3.62-15.084,6.4-20.98" transform="translate(-256.609 -416.169)" fill="none" stroke="#3f585c" stroke-linecap="round" stroke-miterlimit="10" stroke-width="3.34"/>
        <path id="Path_7111" data-name="Path 7111" d="M281.63,468.2h10.176s5.79,0,7.7-5.53c2.2-6.409,3.635-9.739,3.635-9.739s3.229-3.038,7.009-1.932,4.321,5.2,4.321,5.2l-7.048,18.913a10.65,10.65,0,0,1-9.822,5.8l-10.509.063-.019,53.348a7.3,7.3,0,0,1-7.29,7.3h0a7.3,7.3,0,0,1-7.3-7.3" transform="translate(-242.97 -423.262)" fill="none" stroke="#3f585c" stroke-linecap="round" stroke-linejoin="round" stroke-width="3.34"/>
      </g>
      <path id="Path_7112" data-name="Path 7112" d="M279.23,496.61v20.138a7.3,7.3,0,0,1-7.294,7.3h0a7.3,7.3,0,0,1-7.286-7.3V471.212" transform="translate(-249.7 -405.688)" fill="none" stroke="#3f585c" stroke-linecap="round" stroke-linejoin="round" stroke-width="3.34"/>
    </g>
    <g id="Group_2458" data-name="Group 2458" transform="translate(342.769 442.607)">
      <g id="Group_2457" data-name="Group 2457">
        <g id="Group_2455" data-name="Group 2455" transform="translate(13.279 18.872)">
          <path id="Path_7113" data-name="Path 7113" d="M310.525,444.821a9.936,9.936,0,0,0,11.758,0" transform="translate(-309.72 -434.53)" fill="none" stroke="#3f585c" stroke-linecap="round" stroke-miterlimit="10" stroke-width="3.34"/>
          <path id="Path_7114" data-name="Path 7114" d="M310.9,439.688a.409.409,0,0,1-.407.4.4.4,0,1,1,.407-.4Z" transform="translate(-310.092 -439.286)" fill="none" stroke="#3f585c" stroke-linecap="round" stroke-miterlimit="10" stroke-width="3.34"/>
          <path id="Path_7115" data-name="Path 7115" d="M317.65,439.688a.4.4,0,1,1-.4-.4A.407.407,0,0,1,317.65,439.688Z" transform="translate(-304.286 -439.286)" fill="none" stroke="#3f585c" stroke-linecap="round" stroke-miterlimit="10" stroke-width="3.34"/>
        </g>
        <g id="Group_2456" data-name="Group 2456">
          <path id="Path_7116" data-name="Path 7116" d="M320.022,474.075a22.841,22.841,0,1,1,15.032-1.231" transform="translate(-302.95 -429.136)" fill="none" stroke="#3f585c" stroke-linecap="round" stroke-miterlimit="10" stroke-width="3.34"/>
        </g>
      </g>
      <path id="Path_7117" data-name="Path 7117" d="M336.039,452.161a21.346,21.346,0,0,1,9.947,18.1v9.715a21.164,21.164,0,0,1-21.034,21.294h0a21.168,21.168,0,0,1-21.034-21.294v-9.715a21.331,21.331,0,0,1,9.962-18.106" transform="translate(-302.118 -409.353)" fill="none" stroke="#3f585c" stroke-linecap="round" stroke-miterlimit="10" stroke-width="3.34"/>
      <line id="Line_381" data-name="Line 381" x2="38.493" y2="26.416" transform="translate(4.389 50.674)" fill="none" stroke="#6ebf44" stroke-linecap="round" stroke-miterlimit="10" stroke-width="3.34"/>
      <line id="Line_382" data-name="Line 382" y1="13.36" x2="20.339" transform="translate(18.243 46.823)" fill="none" stroke="#6ebf44" stroke-linecap="round" stroke-miterlimit="10" stroke-width="3.34"/>
    </g>
    <line id="Line_383" data-name="Line 383" x2="6.596" y2="9.313" transform="translate(339.36 417.964)" fill="none" stroke="#3f585c" stroke-linecap="round" stroke-linejoin="round" stroke-width="3.34"/>
    <line id="Line_384" data-name="Line 384" y2="10.803" transform="translate(365.603 413.459)" fill="none" stroke="#3f585c" stroke-linecap="round" stroke-linejoin="round" stroke-width="3.34"/>
    <line id="Line_385" data-name="Line 385" y1="9.315" x2="6.749" transform="translate(385.631 419.465)" fill="none" stroke="#3f585c" stroke-linecap="round" stroke-linejoin="round" stroke-width="3.34"/>
  </g>
</svg>
