<svg xmlns="http://www.w3.org/2000/svg" width="172.629" height="170.34" viewBox="0 0 172.629 170.34">
  <g id="seniors" transform="translate(-237.226 -124.137)">
    <path id="Path_6940" data-name="Path 6940" d="M292.972,160.255a23.463,23.463,0,0,0,33.212,0" transform="translate(51.181 32.599)" fill="none" stroke="#f1bd6d" stroke-linecap="round" stroke-linejoin="round" stroke-width="3.34"/>
    <line id="Line_347" data-name="Line 347" x2="31.076" transform="translate(344.153 248.079)" fill="none" stroke="#f1bd6d" stroke-linecap="round" stroke-linejoin="round" stroke-width="3.34"/>
    <g id="Group_1977" data-name="Group 1977" transform="translate(238.894 125.807)">
      <g id="Group_1976" data-name="Group 1976">
        <g id="Group_1975" data-name="Group 1975" transform="translate(7.838)">
          <g id="Group_1974" data-name="Group 1974">
            <g id="Group_1973" data-name="Group 1973">
              <g id="Group_1972" data-name="Group 1972" transform="translate(37.071 20.973)">
                <path id="Path_6941" data-name="Path 6941" d="M276.554,142.918a11.919,11.919,0,0,1-14.1,0" transform="translate(-261.5 -130.585)" fill="none" stroke="#3f585c" stroke-linecap="round" stroke-miterlimit="10" stroke-width="3.34"/>
                <path id="Path_6942" data-name="Path 6942" d="M269.7,137.059a.491.491,0,0,0,.492.483.48.48,0,1,0-.492-.483Z" transform="translate(-254.646 -136.582)" fill="none" stroke="#3f585c" stroke-linecap="round" stroke-miterlimit="10" stroke-width="3.34"/>
                <path id="Path_6943" data-name="Path 6943" d="M261.966,137.059a.479.479,0,1,0,.483-.477A.48.48,0,0,0,261.966,137.059Z" transform="translate(-261.966 -136.582)" fill="none" stroke="#3f585c" stroke-linecap="round" stroke-miterlimit="10" stroke-width="3.34"/>
              </g>
              <path id="Path_6944" data-name="Path 6944" d="M286.3,179.678a27.37,27.37,0,1,0-18.032-1.473" transform="translate(-234.311 -125.807)" fill="none" stroke="#3f585c" stroke-linecap="round" stroke-miterlimit="10" stroke-width="3.34"/>
              <path id="Path_6945" data-name="Path 6945" d="M266.041,203.131v43.39a8.579,8.579,0,0,0,8.58,8.578h0a8.575,8.575,0,0,0,8.576-8.578V165.649" transform="translate(-221.039 -88.099)" fill="none" stroke="#3f585c" stroke-linecap="round" stroke-linejoin="round" stroke-width="3.34"/>
              <path id="Path_6946" data-name="Path 6946" d="M273.056,152.727a34.719,34.719,0,0,1,16.712,20.562c2.126,7.229,11.241,40.826,1.52,40.665-2.672-.047-3.237-.773-4.434-2.818-1.9-3.282-7.159-29.446-9.569-32.457" transform="translate(-214.4 -100.329)" fill="none" stroke="#3f585c" stroke-linecap="round" stroke-miterlimit="10" stroke-width="3.34"/>
              <path id="Path_6947" data-name="Path 6947" d="M276.879,152.727c-10.678,1.689-25.533,10.67-33.255,44.392,0,0-3.04,7.463,3.521,7.72,4.913.193,7.457-6.137,7.457-6.137,3.083-8.395,15.669-32,16.183-23.632,1.119,18.061,0,83.681,0,83.681a8.58,8.58,0,0,0,8.582,8.578h0a8.583,8.583,0,0,0,8.586-8.578" transform="translate(-242.921 -100.329)" fill="none" stroke="#3f585c" stroke-linecap="round" stroke-miterlimit="10" stroke-width="3.34"/>
            </g>
          </g>
        </g>
        <path id="Path_6948" data-name="Path 6948" d="M238.894,190.51a10.349,10.349,0,0,1,10.345-10.345h0a10.348,10.348,0,0,1,10.345,10.345v49.227" transform="translate(-238.894 -74.361)" fill="none" stroke="#9ec366" stroke-linecap="round" stroke-miterlimit="10" stroke-width="3.34"/>
        <line id="Line_348" data-name="Line 348" x1="3.157" y2="14.199" transform="translate(49.854 46.318)" fill="none" stroke="#3f585c" stroke-linecap="round" stroke-miterlimit="10" stroke-width="3.34"/>
        <line id="Line_349" data-name="Line 349" x1="2.3" transform="translate(34.52 30.09)" fill="none" stroke="#3f585c" stroke-linecap="round" stroke-miterlimit="10" stroke-width="3.34"/>
        <line id="Line_350" data-name="Line 350" x2="2.024" transform="translate(69.839 30.09)" fill="none" stroke="#3f585c" stroke-linecap="round" stroke-miterlimit="10" stroke-width="3.34"/>
      </g>
    </g>
    <g id="Group_1982" data-name="Group 1982" transform="translate(324.662 139.381)">
      <g id="Group_1981" data-name="Group 1981">
        <g id="Group_1980" data-name="Group 1980">
          <g id="Group_1979" data-name="Group 1979">
            <g id="Group_1978" data-name="Group 1978" transform="translate(27.82 19.264)">
              <path id="Path_6949" data-name="Path 6949" d="M297.707,148.5a10.949,10.949,0,0,0,12.952,0" transform="translate(-296.819 -137.167)" fill="none" stroke="#3f585c" stroke-linecap="round" stroke-miterlimit="10" stroke-width="3.34"/>
              <path id="Path_6950" data-name="Path 6950" d="M298.139,143.12a.447.447,0,0,1-.45.442.442.442,0,0,1,0-.884A.45.45,0,0,1,298.139,143.12Z" transform="translate(-297.251 -142.678)" fill="none" stroke="#3f585c" stroke-linecap="round" stroke-miterlimit="10" stroke-width="3.34"/>
              <path id="Path_6951" data-name="Path 6951" d="M305.237,143.12a.438.438,0,1,1-.444-.442A.436.436,0,0,1,305.237,143.12Z" transform="translate(-290.522 -142.678)" fill="none" stroke="#3f585c" stroke-linecap="round" stroke-miterlimit="10" stroke-width="3.34"/>
            </g>
            <path id="Path_6952" data-name="Path 6952" d="M306.912,182.275a25.148,25.148,0,1,1,16.568-1.357" transform="translate(-278.081 -132.781)" fill="none" stroke="#3f585c" stroke-linecap="round" stroke-miterlimit="10" stroke-width="3.34"/>
            <path id="Path_6953" data-name="Path 6953" d="M308.728,213.725v29.96a7.879,7.879,0,0,1-7.877,7.879h0a7.875,7.875,0,0,1-7.879-7.879v-74.3" transform="translate(-273.48 -98.138)" fill="none" stroke="#3f585c" stroke-linecap="round" stroke-linejoin="round" stroke-width="3.34"/>
            <path id="Path_6954" data-name="Path 6954" d="M282.958,197.685c14.4,3.019,13.991-24.2,18.818-27.924" transform="translate(-282.958 -97.782)" fill="none" stroke="#3f585c" stroke-linecap="round" stroke-miterlimit="10" stroke-width="3.34"/>
            <path id="Path_6955" data-name="Path 6955" d="M304.028,157.512c-5.613,2.871-15.823,0-19.344,37.823" transform="translate(-281.324 -109.375)" fill="none" stroke="#3f585c" stroke-linecap="round" stroke-miterlimit="10" stroke-width="3.34"/>
            <path id="Path_6956" data-name="Path 6956" d="M311.23,157.512c9.81,1.555,24.87,15.838,28.62,40.556,0,0,.621,7.433-3.344,7.433-4.064,0-5.08-5.75-5.08-5.75-1.08-7.089-14.127-29.4-14.6-21.714-1.026,16.6,0,76.884,0,76.884a7.88,7.88,0,0,1-7.879,7.879h0a7.887,7.887,0,0,1-7.891-7.879" transform="translate(-265.831 -109.375)" fill="none" stroke="#3f585c" stroke-linecap="round" stroke-miterlimit="10" stroke-width="3.34"/>
          </g>
        </g>
      </g>
    </g>
    <path id="Path_6957" data-name="Path 6957" d="M335.112,192.7a9.5,9.5,0,0,0-9.5-9.5h0a9.5,9.5,0,0,0-9.5,9.5V237" transform="translate(73.073 54.32)" fill="none" stroke="#f1bd6d" stroke-linecap="round" stroke-miterlimit="10" stroke-width="3.34"/>
  </g>
</svg>
