<svg xmlns="http://www.w3.org/2000/svg" width="164.346" height="187.212" viewBox="0 0 164.346 187.212">
  <g id="sporty" transform="translate(-232.512 -3178.464)">
    <g id="Group_2435" data-name="Group 2435" transform="translate(307.668 3203.847)">
      <g id="Group_2432" data-name="Group 2432" transform="translate(70.486 1.147)">
        <path id="Path_7080" data-name="Path 7080" d="M330.581,423.821l-8.521,15.887-8.511-15.887Z" transform="translate(-313.549 -423.821)" fill="none" stroke="#ea7a61" stroke-linecap="round" stroke-linejoin="round" stroke-width="3.34"/>
        <line id="Line_371" data-name="Line 371" y2="10.142" transform="translate(8.511 15.887)" fill="none" stroke="#ea7a61" stroke-linecap="round" stroke-linejoin="round" stroke-width="3.34"/>
      </g>
      <g id="Group_2434" data-name="Group 2434">
        <path id="Path_7081" data-name="Path 7081" d="M309.865,459.192s-9.176,3.555-11.1,8.293-1.04,13.175-4.151,13.325c0,0,2.669-1.775.89-7.851-1.773-6.059-6.507-9.466-10.8-7.69s-6.367,8.141-2.369,17.317,7.405,10.658,7.405,10.658,8.73,6.513,13.91-3.257,6.215-12.7,6.215-12.7,1.336-1.363,2.073,1.894a256.883,256.883,0,0,1,6.365,50.175c.44,24.722.738,33.006.738,33.006s.746,6.518,8.734,6.813,8.734-7.7,8.734-7.7V524.618s.592-6.059,7.547-10.429,10.512-11.177,7.253-19.76-14.654-31.085-13.022-30.791a13.536,13.536,0,0,1,6.659,2.369c3.55,2.221,15.244,4.882,18.2-5.478A122.505,122.505,0,0,0,367,441.141s-1.923-4.738-6.509-5.032-7.4,1.991-8.291,8.248-1.329,9.216-2.811,9.216-5.919-3.7-8.88-3.257-6.367,2.071-7.4,3.4" transform="translate(-280.196 -409.021)" fill="none" stroke="#3f585c" stroke-linecap="round" stroke-linejoin="round" stroke-width="3.34"/>
        <path id="Path_7082" data-name="Path 7082" d="M311.6,465.637s-17.173-2.221-22.8,13.616S282.59,498.2,282.59,498.2s-1.183,7.4,4.736,8.441a8.96,8.96,0,0,0,8.885-3.4s3.109-7.105,3.992-11.256,3.257-11.1,12.881-10.362" transform="translate(-277.638 -376.237)" fill="none" stroke="#3f585c" stroke-linecap="round" stroke-linejoin="round" stroke-width="3.34"/>
        <path id="Path_7083" data-name="Path 7083" d="M304.242,473.223a25.376,25.376,0,1,1,16.7-1.372" transform="translate(-274.562 -423.278)" fill="none" stroke="#3f585c" stroke-linecap="round" stroke-miterlimit="10" stroke-width="3.34"/>
        <g id="Group_2433" data-name="Group 2433" transform="translate(20.151 24.073)">
          <path id="Path_7084" data-name="Path 7084" d="M290.155,440.081a11.044,11.044,0,0,0,13.063,0" transform="translate(-289.259 -428.644)" fill="none" stroke="#3f585c" stroke-linecap="round" stroke-miterlimit="10" stroke-width="3.34"/>
          <path id="Path_7085" data-name="Path 7085" d="M290.627,435.115a.448.448,0,0,1-.9,0,.448.448,0,0,1,.9,0Z" transform="translate(-289.731 -434.669)" fill="none" stroke="#3f585c" stroke-linecap="round" stroke-miterlimit="10" stroke-width="3.34"/>
          <path id="Path_7086" data-name="Path 7086" d="M297.226,435.115a.433.433,0,0,1-.433.442.445.445,0,0,1-.456-.442.452.452,0,0,1,.456-.446A.441.441,0,0,1,297.226,435.115Z" transform="translate(-282.377 -434.669)" fill="none" stroke="#3f585c" stroke-linecap="round" stroke-miterlimit="10" stroke-width="3.34"/>
        </g>
      </g>
    </g>
    <g id="Group_2436" data-name="Group 2436" transform="translate(234.181 3189.664)">
      <path id="Path_7087" data-name="Path 7087" d="M290.2,438.956a22.388,22.388,0,1,1-22.387-22.389A22.393,22.393,0,0,1,290.2,438.956Z" transform="translate(-245.423 -416.567)" fill="none" stroke="#62bcdb" stroke-linecap="round" stroke-linejoin="round" stroke-width="3.34"/>
      <path id="Path_7088" data-name="Path 7088" d="M281.391,419.932c-3.914,3.624-10.184,5.977-17.258,5.977-6.486,0-12.3-1.976-16.235-5.093" transform="translate(-242.666 -412.821)" fill="none" stroke="#62bcdb" stroke-linecap="round" stroke-linejoin="round" stroke-width="3.34"/>
      <path id="Path_7089" data-name="Path 7089" d="M289.324,428.1a42.432,42.432,0,0,1-22.581,6.258,42.951,42.951,0,0,1-20.859-5.233" transform="translate(-244.91 -403.727)" fill="none" stroke="#62bcdb" stroke-linecap="round" stroke-linejoin="round" stroke-width="3.34"/>
      <path id="Path_7090" data-name="Path 7090" d="M266.61,427.161" transform="translate(-221.835 -404.772)" fill="none" stroke="#3f585c" stroke-linecap="round" stroke-linejoin="round" stroke-width="3.34"/>
    </g>
    <g id="Group_2440" data-name="Group 2440" transform="translate(239.206 3248.796)">
      <g id="Group_2439" data-name="Group 2439">
        <g id="Group_2437" data-name="Group 2437" transform="translate(0 9.473)">
          <line id="Line_372" data-name="Line 372" x2="1.895" stroke-width="3.34" stroke="#ea7a61" stroke-linecap="round" stroke-linejoin="round" fill="none"/>
          <line id="Line_373" data-name="Line 373" x2="1.897" transform="translate(17.055)" fill="none" stroke="#ea7a61" stroke-linecap="round" stroke-linejoin="round" stroke-width="3.34"/>
        </g>
        <g id="Group_2438" data-name="Group 2438" transform="translate(9.473)">
          <line id="Line_374" data-name="Line 374" y2="1.899" stroke-width="3.34" stroke="#ea7a61" stroke-linecap="round" stroke-linejoin="round" fill="none"/>
          <line id="Line_375" data-name="Line 375" y2="1.895" transform="translate(0 17.055)" fill="none" stroke="#ea7a61" stroke-linecap="round" stroke-linejoin="round" stroke-width="3.34"/>
        </g>
      </g>
    </g>
    <g id="Group_2443" data-name="Group 2443" transform="translate(292.126 3195.917)">
      <g id="Group_2441" data-name="Group 2441" transform="translate(0 9.473)">
        <line id="Line_376" data-name="Line 376" x2="1.897" stroke-width="3.34" stroke="#ea7a61" stroke-linecap="round" stroke-linejoin="round" fill="none"/>
        <line id="Line_377" data-name="Line 377" x2="1.897" transform="translate(17.057)" fill="none" stroke="#ea7a61" stroke-linecap="round" stroke-linejoin="round" stroke-width="3.34"/>
      </g>
      <g id="Group_2442" data-name="Group 2442" transform="translate(9.479)">
        <line id="Line_378" data-name="Line 378" y2="1.895" stroke-width="3.34" stroke="#ea7a61" stroke-linecap="round" stroke-linejoin="round" fill="none"/>
        <line id="Line_379" data-name="Line 379" y2="1.895" transform="translate(0 17.055)" fill="none" stroke="#ea7a61" stroke-linecap="round" stroke-linejoin="round" stroke-width="3.34"/>
      </g>
      <line id="Line_380" data-name="Line 380" y1="9.531" transform="translate(-35.557 -15.784)" fill="none" stroke="#62bcdb" stroke-linecap="round" stroke-linejoin="round" stroke-width="3.34"/>
    </g>
  </g>
</svg>
