<svg xmlns="http://www.w3.org/2000/svg" width="143.296" height="146.061" viewBox="0 0 143.296 146.061">
  <g id="teens" transform="translate(-401.493 -266.43)">
    <line id="Line_364" data-name="Line 364" x1="30.708" transform="translate(468.39 268.165)" fill="none" stroke="#e31b23" stroke-linecap="round" stroke-linejoin="round" stroke-width="3.34"/>
    <line id="Line_365" data-name="Line 365" x1="30.708" transform="translate(429.441 305.862)" fill="none" stroke="#e31b23" stroke-linecap="round" stroke-linejoin="round" stroke-width="3.34"/>
    <line id="Line_366" data-name="Line 366" x1="27.388" transform="translate(428.792 398.123)" fill="none" stroke="#e31b23" stroke-linecap="round" stroke-linejoin="round" stroke-width="3.34"/>
    <g id="Group_2430" data-name="Group 2430" transform="translate(450.415 268.164)">
      <path id="Path_7074" data-name="Path 7074" d="M471.375,296.633s-21.073-10.15-26.867-6.014-11.793,11.173-12.621,26.9c0,0,1.449,7.24,7.447,6.827s7.658-4.141,8.071-6-.413-12,2.8-13.244a7.785,7.785,0,0,1,7.344.622l2.9,2.071-8.488,19.448s-4.137,9.931,2.9,15.932a8.754,8.754,0,0,1,.209,6.832c-1.449,3.723-16.763,34.349-16.763,34.349s-3.724,12.415,3.52,12.621h13.656a70.98,70.98,0,0,1,4.968-16.345c3.724-8.276,27.313-57.526,27.313-57.526s3.519-7.036,4.966-6,2.479,6.621,3.311,9.313,5.172,13.035,12.417,12.619,12.621-3.514,15.1-16.14c0,0,4.346-14.067-4.759-15.1s-12.211,9.309-8.482,14.69c0,0-2.695-1.862-3.933-9.311s-9.75-11.69-17.2-11.482" transform="translate(-431.887 -254.319)" fill="none" stroke="#3f585c" stroke-linecap="round" stroke-linejoin="round" stroke-width="3.34"/>
      <path id="Path_7075" data-name="Path 7075" d="M465.68,318.909s21.93,11.38,20.068,21.312-7.238,24.837-7.238,24.837-3.729,3.925-10.14,0-2.69-14.073-2.69-14.073,4.761-10.764-6.626-15.314" transform="translate(-414.363 -235.431)" fill="none" stroke="#3f585c" stroke-linecap="round" stroke-linejoin="round" stroke-width="3.34"/>
      <path id="Path_7076" data-name="Path 7076" d="M461.845,312.228a23.766,23.766,0,1,1,15.347,3.308" transform="translate(-419.901 -268.164)" fill="none" stroke="#3f585c" stroke-linecap="round" stroke-miterlimit="10" stroke-width="3.34"/>
      <g id="Group_2429" data-name="Group 2429" transform="translate(62.672 22.206)">
        <path id="Path_7077" data-name="Path 7077" d="M470.493,288.174a10.355,10.355,0,0,0,12.244,0" transform="translate(-469.656 -277.463)" fill="none" stroke="#3f585c" stroke-linecap="round" stroke-miterlimit="10" stroke-width="3.34"/>
        <path id="Path_7078" data-name="Path 7078" d="M470.821,282.079a.419.419,0,1,1-.419-.416A.417.417,0,0,1,470.821,282.079Z" transform="translate(-469.984 -281.663)" fill="none" stroke="#3f585c" stroke-linecap="round" stroke-miterlimit="10" stroke-width="3.34"/>
        <path id="Path_7079" data-name="Path 7079" d="M478.767,282.079a.412.412,0,0,1-.411.416.416.416,0,1,1,0-.832A.413.413,0,0,1,478.767,282.079Z" transform="translate(-464.855 -281.663)" fill="none" stroke="#3f585c" stroke-linecap="round" stroke-miterlimit="10" stroke-width="3.34"/>
      </g>
    </g>
    <line id="Line_367" data-name="Line 367" x1="28.628" transform="translate(403.163 317.289)" fill="none" stroke="#e31b23" stroke-linecap="round" stroke-linejoin="round" stroke-width="3.34"/>
    <line id="Line_368" data-name="Line 368" x1="24.817" transform="translate(431.791 328.717)" fill="none" stroke="#e31b23" stroke-linecap="round" stroke-linejoin="round" stroke-width="3.34"/>
    <line id="Line_369" data-name="Line 369" x1="34.477" transform="translate(410.203 386.156)" fill="none" stroke="#e31b23" stroke-linecap="round" stroke-linejoin="round" stroke-width="3.34"/>
    <line id="Line_370" data-name="Line 370" x1="5.709" transform="translate(413.988 305.862)" fill="none" stroke="#e31b23" stroke-linecap="round" stroke-linejoin="round" stroke-width="3.34"/>
  </g>
</svg>
