<svg xmlns="http://www.w3.org/2000/svg" width="180.287" height="199.075" viewBox="0 0 180.287 199.075">
  <g id="volunteers" transform="translate(-1592.76 -2827.33)">
    <g id="Group_1998" data-name="Group 1998" transform="translate(892.693 2125.26)">
      <path id="Path_6987" data-name="Path 6987" d="M462.309,417.689a8.276,8.276,0,0,1,1.556-2.247,7.156,7.156,0,0,1,9.53-.5,8.96,8.96,0,0,1,3.363,6.99,6.572,6.572,0,0,1-.933,3.2,23.2,23.2,0,0,1-4.089,5.275,68.1,68.1,0,0,1-9.15,7.666c-.142.1-.253.219-.481.06a66.912,66.912,0,0,1-9.908-8.441,23.279,23.279,0,0,1-3.347-4.438c-1.6-2.823-1.137-5.531.457-8.147a7.454,7.454,0,0,1,5.189-3.64,7.07,7.07,0,0,1,7.593,3.8C462.148,417.386,462.207,417.5,462.309,417.689Z" transform="translate(303.452 353)" fill="#e31b23" stroke="#3f585c" stroke-linecap="round" stroke-linejoin="round" stroke-width="3.34"/>
    </g>
    <g id="Group_2002" data-name="Group 2002" transform="translate(1366.391 2393.03)">
      <g id="Group_2000" data-name="Group 2000" transform="translate(289.91 457.321)">
        <path id="Path_6988" data-name="Path 6988" d="M271.3,450.648a12.492,12.492,0,0,0,14.774,0" transform="translate(-270.29 -437.719)" fill="none" stroke="#3f585c" stroke-linecap="round" stroke-miterlimit="10" stroke-width="3.34"/>
        <path id="Path_6989" data-name="Path 6989" d="M271.879,445.614a.516.516,0,0,1-.516.507.5.5,0,0,1,0-1.009A.512.512,0,0,1,271.879,445.614Z" transform="translate(-270.868 -445.112)" fill="none" stroke="#3f585c" stroke-linecap="round" stroke-miterlimit="10" stroke-width="3.34"/>
        <path id="Path_6990" data-name="Path 6990" d="M278.629,445.614a.511.511,0,0,1-.507.507.5.5,0,1,1,.507-.507Z" transform="translate(-261.842 -445.112)" fill="none" stroke="#3f585c" stroke-linecap="round" stroke-miterlimit="10" stroke-width="3.34"/>
      </g>
      <g id="Group_2001" data-name="Group 2001" transform="translate(256.609 435.97)">
        <path id="Path_6991" data-name="Path 6991" d="M281.578,492.42a28.688,28.688,0,1,1,18.882-1.546" transform="translate(-251.904 -435.97)" fill="none" stroke="#3f585c" stroke-linecap="round" stroke-miterlimit="10" stroke-width="3.34"/>
        <path id="Path_6992" data-name="Path 6992" d="M277.53,459.014c-6.408,3.27-12.8,10.678-16,17.119-3.524,7.069-4.923,13.767-4.923,34.448,0,3.695,7.051,5.582,10.211,3.057,3.1-2.476,4.547-18.947,8.039-26.353" transform="translate(-256.609 -405.196)" fill="none" stroke="#3f585c" stroke-linecap="round" stroke-miterlimit="10" stroke-width="3.34"/>
        <path id="Path_6993" data-name="Path 6993" d="M283.972,472.669h12.782s7.273,0,9.666-6.946c2.767-8.05,4.566-12.233,4.566-12.233s4.057-3.816,8.8-2.426,5.427,6.53,5.427,6.53l-8.854,23.756a13.378,13.378,0,0,1-12.338,7.282l-13.2.079-.023,67.011a9.164,9.164,0,0,1-9.157,9.167h0a9.17,9.17,0,0,1-9.164-9.167" transform="translate(-235.412 -416.219)" fill="none" stroke="#3f585c" stroke-linecap="round" stroke-linejoin="round" stroke-width="3.34"/>
      </g>
      <path id="Path_6994" data-name="Path 6994" d="M282.965,503.114v25.3a9.166,9.166,0,0,1-9.162,9.167h0a9.167,9.167,0,0,1-9.153-9.167v-57.2" transform="translate(10.738 47.064)" fill="none" stroke="#3f585c" stroke-linecap="round" stroke-linejoin="round" stroke-width="3.34"/>
    </g>
    <g id="Group_2005" data-name="Group 2005" transform="translate(1528.371 2646.037)">
      <g id="Group_2003" data-name="Group 2003" transform="translate(109.835 335.734)">
        <path id="Path_6995" data-name="Path 6995" d="M112.3,363.373a17.155,17.155,0,1,1,11.286-.928" transform="translate(-97.511 -329.632)" fill="none" stroke="#3f585c" stroke-linecap="round" stroke-miterlimit="10" stroke-width="3.34"/>
        <path id="Path_6996" data-name="Path 6996" d="M107.975,347.06c-3.826,1.958-7.645,6.387-9.559,10.233" transform="translate(-98.416 -314.898)" fill="none" stroke="#3f585c" stroke-linecap="round" stroke-miterlimit="10" stroke-width="3.34"/>
        <path id="Path_6997" data-name="Path 6997" d="M114.151,347.06c3.827,1.958,7.647,6.387,9.563,10.233" transform="translate(-85.114 -314.898)" fill="none" stroke="#3f585c" stroke-linecap="round" stroke-miterlimit="10" stroke-width="3.34"/>
      </g>
      <g id="Group_2004" data-name="Group 2004" transform="translate(66.628 315.963)">
        <path id="Path_6998" data-name="Path 6998" d="M89.686,357.689a16.129,16.129,0,1,1,10.611-.871" transform="translate(-75.776 -325.963)" fill="none" stroke="#3f585c" stroke-linecap="round" stroke-miterlimit="10" stroke-width="3.34"/>
        <path id="Path_6999" data-name="Path 6999" d="M85.621,342.35c-3.6,1.845-7.19,6.01-8.993,9.626" transform="translate(-76.628 -312.11)" fill="none" stroke="#3f585c" stroke-linecap="round" stroke-miterlimit="10" stroke-width="3.34"/>
        <path id="Path_7000" data-name="Path 7000" d="M91.426,342.35c3.6,1.845,7.191,6.01,8.993,9.626" transform="translate(-64.118 -312.11)" fill="none" stroke="#3f585c" stroke-linecap="round" stroke-miterlimit="10" stroke-width="3.34"/>
      </g>
    </g>
    <g id="Group_2006" data-name="Group 2006" transform="translate(1692 2947)">
      <g id="Group_2003-2" data-name="Group 2003" transform="translate(-6 19.771)">
        <path id="Path_6995-2" data-name="Path 6995" d="M120.957,363.373a17.155,17.155,0,1,0-11.286-.928" transform="translate(-97.146 -329.632)" fill="none" stroke="#3f585c" stroke-linecap="round" stroke-miterlimit="10" stroke-width="3.34"/>
        <path id="Path_6996-2" data-name="Path 6996" d="M98.416,347.06c3.826,1.958,7.645,6.387,9.559,10.233" transform="translate(-69.375 -314.898)" fill="none" stroke="#3f585c" stroke-linecap="round" stroke-miterlimit="10" stroke-width="3.34"/>
        <path id="Path_6997-2" data-name="Path 6997" d="M123.714,347.06c-3.827,1.958-7.647,6.387-9.563,10.233" transform="translate(-114.151 -314.898)" fill="none" stroke="#3f585c" stroke-linecap="round" stroke-miterlimit="10" stroke-width="3.34"/>
      </g>
      <g id="Group_2004-2" data-name="Group 2004" transform="translate(42.507 0)">
        <path id="Path_6998-2" data-name="Path 6998" d="M97.825,357.689a16.129,16.129,0,1,0-10.611-.871" transform="translate(-75.434 -325.963)" fill="none" stroke="#3f585c" stroke-linecap="round" stroke-miterlimit="10" stroke-width="3.34"/>
        <path id="Path_6999-2" data-name="Path 6999" d="M76.628,342.35c3.6,1.845,7.19,6.01,8.993,9.626" transform="translate(-49.32 -312.11)" fill="none" stroke="#3f585c" stroke-linecap="round" stroke-miterlimit="10" stroke-width="3.34"/>
        <path id="Path_7000-2" data-name="Path 7000" d="M100.419,342.35c-3.6,1.845-7.192,6.01-8.993,9.626" transform="translate(-91.426 -312.11)" fill="none" stroke="#3f585c" stroke-linecap="round" stroke-miterlimit="10" stroke-width="3.34"/>
      </g>
    </g>
  </g>
</svg>
